<?xml version="1.0" encoding="UTF-8" standalone="no"?>
<!DOCTYPE svg PUBLIC "-//W3C//DTD SVG 1.1//EN" "http://www.w3.org/Graphics/SVG/1.1/DTD/svg11.dtd">
<svg width="100%" height="100%" viewBox="0 0 857 138" version="1.1" xmlns="http://www.w3.org/2000/svg" xmlns:xlink="http://www.w3.org/1999/xlink" xml:space="preserve" xmlns:serif="http://www.serif.com/" style="fill-rule:evenodd;clip-rule:evenodd;stroke-linejoin:round;stroke-miterlimit:2;">
    <g transform="matrix(1,0,0,1,-531.716,-471.097)">
        <g id="Layer-1" serif:id="Layer 1">
            <g transform="matrix(1,0,0,1,568.251,548.356)">
                <path d="M0,-17.082C-10.554,-19.603 -16.367,-20.991 -16.367,-26.582C-16.367,-32.389 -10.219,-34.457 -4.464,-34.457C0.372,-34.457 4.418,-33.008 8.277,-29.89C10.368,-28.281 12.257,-27.532 14.221,-27.532C19.083,-27.532 22.612,-31.061 22.612,-35.924C22.612,-38.867 21.019,-41.475 17.737,-43.898C12.582,-47.69 4.463,-49.954 -3.981,-49.954C-19.545,-49.954 -35.248,-42.18 -35.248,-24.811C-35.248,-9.842 -23.49,-5.009 -11.986,-2.256C-0.493,0.423 5.505,2.105 5.505,8.212C5.505,16.474 -4.544,16.892 -6.559,16.892C-11.725,16.892 -16.471,15.136 -21.078,11.517C-23.579,9.64 -25.644,8.839 -27.982,8.839C-32.778,8.839 -36.535,12.668 -36.535,17.554C-36.535,19.684 -35.747,22.822 -31.991,25.684C-26.18,30.118 -16.743,32.872 -7.364,32.872C2.473,32.872 25.353,30.312 25.353,6.6C25.353,-9.007 11.804,-14.254 0,-17.082" style="fill:rgb(209,67,108);fill-rule:nonzero;"/>
            </g>
            <g transform="matrix(1,0,0,1,602.302,571.469)">
                <path d="M0,-62.934C0,-68.104 4.101,-72.38 9.271,-72.38C14.441,-72.38 18.54,-68.104 18.54,-62.934L18.54,-27.639C18.54,-17.652 26.918,-9.275 36.906,-9.275C46.892,-9.275 55.27,-17.652 55.27,-27.639L55.27,-62.934C55.27,-68.104 59.369,-72.38 64.539,-72.38C69.532,-72.38 73.81,-68.104 73.81,-62.934L73.81,-27.639C73.81,-7.313 57.226,9.446 36.906,9.446C16.578,9.446 0,-7.319 0,-27.639L0,-62.934Z" style="fill:rgb(209,67,108);fill-rule:nonzero;"/>
            </g>
            <g transform="matrix(1,0,0,1,726.597,590.369)">
                <path d="M0,-72.746C-12.478,-72.746 -22.459,-62.577 -22.465,-50.458C-22.465,-38.157 -12.478,-28.175 0,-28.175C11.943,-28.175 22.106,-38.157 22.106,-50.458C22.106,-62.583 11.943,-72.746 0,-72.746M0,-91.28C22.282,-91.28 40.469,-73.099 40.469,-50.458C40.469,-27.641 22.282,-9.454 0,-9.454C-8.918,-9.454 -16.761,-12.491 -22.465,-17.655L-22.465,9.257C-22.465,14.25 -26.566,18.534 -31.736,18.534C-36.723,18.534 -41.005,14.25 -41.005,9.257L-41.005,-50.458C-41.005,-73.099 -22.818,-91.28 0,-91.28" style="fill:rgb(209,67,108);fill-rule:nonzero;"/>
            </g>
            <g transform="matrix(1,0,0,1,817.343,562.381)">
                <path d="M0,-44.758C-9.982,-44.758 -18.358,-37.979 -21.031,-28.891L20.678,-28.891C18.187,-37.985 9.804,-44.758 0,-44.758M0,-63.292C19.967,-63.292 36.728,-48.676 39.752,-29.425C41.715,-21.395 39.035,-15.691 29.055,-15.691L-21.037,-15.691C-18.358,-6.779 -9.982,-0.181 0,-0.181C5.879,-0.181 11.408,-2.684 15.508,-6.602C17.464,-8.558 19.961,-9.452 22.282,-9.452C24.602,-9.452 26.916,-8.565 28.703,-6.602C32.269,-3.212 32.269,2.844 28.703,6.592C21.395,13.9 11.055,18.534 0,18.534C-22.823,18.534 -41.005,0.347 -41.005,-22.47C-41.005,-45.111 -22.816,-63.292 0,-63.292" style="fill:rgb(209,67,108);fill-rule:nonzero;"/>
            </g>
            <g transform="matrix(1,0,0,1,903.95,580.877)">
                <path d="M0,-82.179C4.993,-82.179 9.271,-77.903 9.271,-72.916C9.271,-67.74 4.987,-63.645 0,-63.645C-10.34,-63.645 -18.364,-55.438 -18.364,-45.281L-18.364,-9.452C-18.364,-4.101 -22.465,0 -27.635,0C-32.803,0 -36.904,-4.101 -36.904,-9.452L-36.904,-45.281C-36.904,-65.424 -20.326,-82.179 0,-82.179" style="fill:rgb(209,67,108);fill-rule:nonzero;"/>
            </g>
            <g transform="matrix(1,0,0,1,931.769,580.922)">
                <path d="M0,-109.825C5.17,-109.825 9.263,-105.543 9.269,-100.549L9.269,-9.276C9.269,-4.282 5.17,0 0,0C-4.993,0 -9.271,-4.282 -9.271,-9.276L-9.271,-100.549C-9.271,-105.725 -4.993,-109.825 0,-109.825" style="fill:rgb(209,67,108);fill-rule:nonzero;"/>
            </g>
            <g transform="matrix(1,0,0,1,1094.97,539.914)">
                <path d="M0,0.176C0,22.818 -18.364,40.999 -40.823,40.999C-50.451,40.999 -58.829,37.608 -65.784,32.257C-61.508,27.628 -58.477,21.918 -56.515,15.86C-52.765,19.779 -46.886,22.458 -40.823,22.458C-28.703,22.458 -18.717,12.301 -18.717,0.176C-18.717,-12.126 -28.703,-22.289 -40.823,-22.289C-53.124,-22.289 -63.111,-12.126 -63.111,0.176C-63.111,22.818 -81.3,40.999 -103.934,40.999C-126.216,40.999 -144.756,22.811 -144.756,0.176C-144.756,-22.47 -126.216,-40.823 -103.934,-40.823C-94.311,-40.823 -85.746,-37.616 -78.972,-32.086C-83.256,-27.628 -86.457,-21.748 -88.249,-15.508C-92.167,-19.603 -97.519,-22.283 -103.934,-22.283C-116.059,-22.283 -125.858,-12.12 -125.858,0.182C-125.858,12.308 -116.053,22.464 -103.934,22.464C-91.632,22.464 -81.651,12.308 -81.651,0.182C-81.651,-22.464 -63.464,-40.823 -40.823,-40.823C-18.364,-40.823 0,-22.464 0,0.176" style="fill:rgb(209,67,108);fill-rule:nonzero;"/>
            </g>
            <g transform="matrix(1,0,0,1,1145.25,590.369)">
                <path d="M0,-72.746C-12.477,-72.746 -22.457,-62.577 -22.463,-50.458C-22.463,-38.157 -12.477,-28.175 0,-28.175C11.944,-28.175 22.107,-38.157 22.107,-50.458C22.107,-62.583 11.944,-72.746 0,-72.746M0,-91.28C22.282,-91.28 40.471,-73.099 40.471,-50.458C40.471,-27.641 22.282,-9.454 0,-9.454C-8.918,-9.454 -16.759,-12.491 -22.463,-17.655L-22.463,9.257C-22.463,14.25 -26.565,18.534 -31.734,18.534C-36.721,18.534 -41.004,14.25 -41.004,9.257L-41.004,-50.458C-41.004,-73.099 -22.817,-91.28 0,-91.28" style="fill:rgb(209,67,108);fill-rule:nonzero;"/>
            </g>
            <g transform="matrix(1,0,0,1,991.307,533.065)">
                <path d="M0,13C-3.59,13 -6.5,10.09 -6.5,6.5C-6.5,2.91 -3.59,0 0,0C3.59,0 6.5,2.91 6.5,6.5C6.5,10.09 3.59,13 0,13M0,-4C-5.799,-4 -10.5,0.701 -10.5,6.5C-10.5,12.299 -5.799,17 0,17C5.799,17 10.5,12.299 10.5,6.5C10.5,0.701 5.799,-4 0,-4" style="fill:rgb(209,67,108);fill-rule:nonzero;"/>
            </g>
            <g transform="matrix(0,-1,-1,0,1053.31,529.065)">
                <path d="M-10.5,-10.5C-16.299,-10.5 -21,-5.799 -21,0C-21,5.799 -16.299,10.5 -10.5,10.5C-4.701,10.5 0,5.799 0,0C0,-5.799 -4.701,-10.5 -10.5,-10.5" style="fill:rgb(209,67,108);fill-rule:nonzero;"/>
            </g>
            <g transform="matrix(-1,0,0,1,1201.07,580.92)">
                <path d="M-0.356,-21.388C-6.237,-21.388 -10.872,-16.754 -10.872,-10.873C-10.872,-4.993 -6.243,0 -0.356,0C5.529,0 10.516,-4.987 10.516,-10.873C10.516,-16.76 5.529,-21.388 -0.356,-21.388" style="fill:rgb(209,67,108);fill-rule:nonzero;"/>
            </g>
            <g transform="matrix(1,0,0,1,1268.34,580.936)">
                <path d="M0,-109.831C5.17,-109.831 9.269,-105.731 9.269,-100.555C9.269,-95.386 5.17,-91.284 0,-91.284L-10.34,-91.284C-14.622,-91.284 -18.364,-87.719 -18.364,-83.266L-18.364,-81.845L0,-81.845C5.17,-81.845 9.269,-77.569 9.269,-72.575C9.269,-67.582 5.17,-63.304 0,-63.304L-18.364,-63.304L-18.364,-9.275C-18.364,-4.282 -22.282,0 -27.635,0C-32.628,0 -36.904,-4.282 -36.904,-9.275L-36.904,-63.292L-43.144,-63.292C-48.137,-63.292 -52.414,-67.57 -52.414,-72.563C-52.414,-77.556 -48.137,-81.832 -43.144,-81.832L-36.904,-81.832L-36.904,-83.266C-36.904,-97.888 -24.962,-109.831 -10.34,-109.831L0,-109.831Z" style="fill:rgb(209,67,108);fill-rule:nonzero;"/>
            </g>
            <g transform="matrix(1,0,0,1,1310.37,580.923)">
                <path d="M0,-81.826C9.094,-81.826 17.47,-77.733 22.652,-71.311C28.533,-77.733 36.559,-81.826 45.828,-81.826C63.475,-81.826 77.916,-67.387 77.916,-49.387L77.916,-9.275C77.916,-4.282 73.815,0 68.821,0C63.469,0 59.193,-4.282 59.193,-9.275L59.193,-49.387C59.193,-57.053 53.131,-63.292 45.822,-63.292C38.332,-63.292 32.094,-57.053 32.094,-49.387L32.094,-9.275C32.094,-4.282 27.993,0 22.64,0C17.647,0 13.547,-4.282 13.547,-9.275L13.547,-49.387C13.547,-57.053 7.307,-63.292 0,-63.292C-7.667,-63.292 -13.73,-57.053 -13.73,-49.387L-13.73,-9.275C-13.73,-4.282 -17.83,0 -22.999,0C-27.986,0 -32.269,-4.282 -32.269,-9.275L-32.269,-49.387C-32.269,-67.387 -17.83,-81.826 0,-81.826" style="fill:rgb(209,67,108);fill-rule:nonzero;"/>
            </g>
        </g>
    </g>
</svg>
