<?xml version="1.0" encoding="UTF-8" standalone="no"?>
<!DOCTYPE svg PUBLIC "-//W3C//DTD SVG 1.1//EN" "http://www.w3.org/Graphics/SVG/1.1/DTD/svg11.dtd">
<svg width="100%" height="100%" viewBox="0 0 402 387" version="1.1" xmlns="http://www.w3.org/2000/svg" xmlns:xlink="http://www.w3.org/1999/xlink" xml:space="preserve" xmlns:serif="http://www.serif.com/" style="fill-rule:evenodd;clip-rule:evenodd;stroke-linejoin:round;stroke-miterlimit:2;">
    <g transform="matrix(1,0,0,1,-759,-325.959)">
        <g id="Layer-1" serif:id="Layer 1">
            <g transform="matrix(1,0,0,1,1062.46,390.804)">
                <path d="M0,256.809C20.863,256.818 37.189,240.485 37.21,219.584C37.23,199.439 20.733,183.083 0.536,183.224C-20.245,183.368 -36.651,199.728 -36.646,220.303C-36.641,240.373 -20.151,256.8 0,256.809M-203.861,256.856C-183.17,256.887 -166.659,240.684 -166.799,220.106C-166.941,199.215 -183.075,183.562 -203.525,183.197C-224.152,182.828 -241.183,199.624 -241.166,219.917C-241.149,240.506 -224.669,256.825 -203.861,256.856M58.658,167.294C54.691,171.482 50.988,175.638 47.001,179.501C44.799,181.634 44.787,183.154 46.536,185.691C59.554,204.58 61.379,224.562 51.672,245.416C41.087,268.158 15.478,281.285 -9.246,276.939C-24.183,274.314 -36.059,267.061 -45.019,254.733C-54.443,241.769 -58.809,227.488 -56.126,211.646C-51.807,186.138 -36.214,170.82 -11.526,164.406C-7.496,163.359 -3.254,163.125 0.87,162.518L0.87,140.634C-30.613,137.396 -66.737,164.074 -76.071,197.249C-86.935,235.859 -69.734,274.769 -33.786,291.844C-1.068,307.386 38.962,297.873 62.053,265.741C84.915,233.93 80.666,192.206 58.658,167.294M-204.076,299.175L-204.076,277.44C-207.354,277.067 -210.443,276.891 -213.466,276.345C-242.775,271.051 -266.776,242.501 -260.276,208.72C-254.429,178.334 -224.685,157.568 -191.904,164.163C-180.683,166.421 -171.36,172.234 -163.042,180.052C-149.407,192.865 -144.789,208.757 -146.415,226.844C-147.193,235.501 -150.435,243.396 -154.877,250.848C-155.448,251.807 -155.449,253.791 -154.824,254.664C-151.127,259.832 -147.168,264.812 -143.277,269.881C-124.783,249.269 -117.632,211.589 -136.092,178.956C-157.488,141.134 -201.747,132.775 -235.779,147.21C-274.497,163.632 -289.688,202.575 -279.89,240.114C-269.42,280.226 -231.519,299.639 -204.076,299.175M70.846,147.66C69.995,127.282 72.695,107.215 68.33,87.408C62.903,62.778 51.992,40.768 35.746,21.581C9.41,-9.523 -23.539,-30.115 -63.448,-39.145C-82.947,-43.557 -102.662,-44.093 -122.506,-42.069C-155.545,-38.698 -185.251,-26.776 -211.607,-6.764C-242.456,16.659 -263.583,46.836 -272.757,84.755C-274.559,92.204 -275.395,100.006 -275.658,107.68C-276.117,121.072 -275.786,134.492 -275.786,148.716C-274.23,147.303 -273.164,146.294 -272.055,145.336C-249.55,125.892 -223.321,116.879 -193.807,119.488C-146.229,123.694 -114.653,158.511 -105.92,198.645C-94.868,249.444 -124.631,301.758 -174.221,316.722C-207.064,326.632 -237.57,320.173 -264.338,298.631C-283.647,283.092 -296.504,263.156 -301.372,238.596C-304.857,221.007 -304.04,203.559 -298.537,186.395C-297.858,184.278 -297.403,181.988 -297.391,179.776C-297.274,158.815 -296.825,137.843 -297.354,116.896C-298.076,88.366 -290.545,62.08 -277.17,37.275C-258.595,2.828 -231.205,-22.729 -196.975,-41.264C-174.424,-53.475 -150.367,-60.922 -124.916,-63.602C-65.845,-69.823 -14.084,-52.608 30.666,-13.999C58.068,9.643 76.898,38.993 86.974,73.812C90.542,86.144 92.325,98.749 92.238,111.647C92.09,133.64 92.17,155.635 92.282,177.628C92.296,180.35 92.81,183.148 93.562,185.776C104.591,224.326 97.446,258.849 70.433,288.749C55.605,305.161 37.319,316.066 15.316,319.549C-15.347,324.402 -42.837,316.996 -66.194,296.185C-85.3,279.161 -96.353,257.505 -99.44,232.326C-103.04,202.958 -95.044,176.485 -75.82,153.829C-59.516,134.614 -38.327,123.533 -13.618,120.088C14.449,116.175 39.937,123.362 62.302,140.996C64.813,142.976 67.22,145.089 69.681,147.132C69.822,147.248 70.023,147.292 70.846,147.66" style="fill:rgb(209,67,108);fill-rule:nonzero;"/>
            </g>
            <g transform="matrix(1,0,0,1,1089.98,378.373)">
                <path d="M0,102.821C8.474,105.268 16.623,108.934 24.433,113.776C24.339,113.149 24.234,112.529 24.108,111.912C17.423,79.293 0.498,52.567 -24.674,31.449C-61.897,0.219 -105.176,-11.481 -153.304,-5.191C-179.821,-1.726 -204.164,7.431 -225.845,23.249C-251.289,41.812 -269.801,65.613 -279.978,95.598C-282.039,101.67 -283.519,107.885 -284.394,114.302C-276.766,109.591 -268.775,105.952 -260.434,103.421C-248.632,68.772 -225.334,43.851 -192.318,28.507C-151.693,9.627 -110.088,9.428 -69.333,28.239C-35.869,43.686 -12.171,68.371 0,102.821" style="fill:rgb(209,67,108);fill-rule:nonzero;"/>
            </g>
        </g>
    </g>
</svg>
