<?xml version="1.0" encoding="UTF-8" standalone="no"?>
<!DOCTYPE svg PUBLIC "-//W3C//DTD SVG 1.1//EN" "http://www.w3.org/Graphics/SVG/1.1/DTD/svg11.dtd">
<svg width="100%" height="100%" viewBox="0 0 892 189" version="1.1" xmlns="http://www.w3.org/2000/svg" xmlns:xlink="http://www.w3.org/1999/xlink" xml:space="preserve" xmlns:serif="http://www.serif.com/" style="fill-rule:evenodd;clip-rule:evenodd;stroke-linejoin:round;stroke-miterlimit:2;">
    <g transform="matrix(1,0,0,1,-531.716,-420.334)">
        <g id="Layer-1" serif:id="Layer 1">
            <g transform="matrix(1.14186,0,0,1.12429,-127.602,-68.1856)">
                <g transform="matrix(0.373887,0,0,0.373887,1061.08,458.758)">
                    <path d="M0,256.809C20.863,256.818 37.189,240.485 37.21,219.584C37.23,199.439 20.733,183.083 0.536,183.224C-20.245,183.368 -36.651,199.728 -36.646,220.303C-36.641,240.373 -20.151,256.8 0,256.809M-203.861,256.856C-183.17,256.887 -166.659,240.684 -166.799,220.106C-166.941,199.215 -183.075,183.562 -203.525,183.197C-224.152,182.828 -241.183,199.624 -241.166,219.917C-241.149,240.506 -224.669,256.825 -203.861,256.856M58.658,167.294C54.691,171.482 50.988,175.638 47.001,179.501C44.799,181.634 44.787,183.154 46.536,185.691C59.554,204.58 61.379,224.562 51.672,245.416C41.087,268.158 15.478,281.285 -9.246,276.939C-24.183,274.314 -36.059,267.061 -45.019,254.733C-54.443,241.769 -58.809,227.488 -56.126,211.646C-51.807,186.138 -36.214,170.82 -11.526,164.406C-7.496,163.359 -3.254,163.125 0.87,162.518L0.87,140.634C-30.613,137.396 -66.737,164.074 -76.071,197.249C-86.935,235.859 -69.734,274.769 -33.786,291.844C-1.068,307.386 38.962,297.873 62.053,265.741C84.915,233.93 80.666,192.206 58.658,167.294M-204.076,299.175L-204.076,277.44C-207.354,277.067 -210.443,276.891 -213.466,276.345C-242.775,271.051 -266.776,242.501 -260.276,208.72C-254.429,178.334 -224.685,157.568 -191.904,164.163C-180.683,166.421 -171.36,172.234 -163.042,180.052C-149.407,192.865 -144.789,208.757 -146.415,226.844C-147.193,235.501 -150.435,243.396 -154.877,250.848C-155.448,251.807 -155.449,253.791 -154.824,254.664C-151.127,259.832 -147.168,264.812 -143.277,269.881C-124.783,249.269 -117.632,211.589 -136.092,178.956C-157.488,141.134 -201.747,132.775 -235.779,147.21C-274.497,163.632 -289.688,202.575 -279.89,240.114C-269.42,280.226 -231.519,299.639 -204.076,299.175M70.846,147.66C69.995,127.282 72.695,107.215 68.33,87.408C62.903,62.778 51.992,40.768 35.746,21.581C9.41,-9.523 -23.539,-30.115 -63.448,-39.145C-82.947,-43.557 -102.662,-44.093 -122.506,-42.069C-155.545,-38.698 -185.251,-26.776 -211.607,-6.764C-242.456,16.659 -263.583,46.836 -272.757,84.755C-274.559,92.204 -275.395,100.006 -275.658,107.68C-276.117,121.072 -275.786,134.492 -275.786,148.716C-274.23,147.303 -273.164,146.294 -272.055,145.336C-249.55,125.892 -223.321,116.879 -193.807,119.488C-146.229,123.694 -114.653,158.511 -105.92,198.645C-94.868,249.444 -124.631,301.758 -174.221,316.722C-207.064,326.632 -237.57,320.173 -264.338,298.631C-283.647,283.092 -296.504,263.156 -301.372,238.596C-304.857,221.007 -304.04,203.559 -298.537,186.395C-297.858,184.278 -297.403,181.988 -297.391,179.776C-297.274,158.815 -296.825,137.843 -297.354,116.896C-298.076,88.366 -290.545,62.08 -277.17,37.275C-258.595,2.828 -231.205,-22.729 -196.975,-41.264C-174.424,-53.475 -150.367,-60.922 -124.916,-63.602C-65.845,-69.823 -14.084,-52.608 30.666,-13.999C58.068,9.643 76.898,38.993 86.974,73.812C90.542,86.144 92.325,98.749 92.238,111.647C92.09,133.64 92.17,155.635 92.282,177.628C92.296,180.35 92.81,183.148 93.562,185.776C104.591,224.326 97.446,258.849 70.433,288.749C55.605,305.161 37.319,316.066 15.316,319.549C-15.347,324.402 -42.837,316.996 -66.194,296.185C-85.3,279.161 -96.353,257.505 -99.44,232.326C-103.04,202.958 -95.044,176.485 -75.82,153.829C-59.516,134.614 -38.327,123.533 -13.618,120.088C14.449,116.175 39.937,123.362 62.302,140.996C64.813,142.976 67.22,145.089 69.681,147.132C69.822,147.248 70.023,147.292 70.846,147.66" style="fill-rule:nonzero;"/>
                </g>
                <g transform="matrix(0.373887,0,0,0.373887,1071.37,454.11)">
                    <path d="M0,102.821C8.474,105.268 16.623,108.934 24.433,113.776C24.339,113.149 24.234,112.529 24.108,111.912C17.423,79.293 0.498,52.567 -24.674,31.449C-61.897,0.219 -105.176,-11.481 -153.304,-5.191C-179.821,-1.726 -204.164,7.431 -225.845,23.249C-251.289,41.812 -269.801,65.613 -279.978,95.598C-282.039,101.67 -283.519,107.885 -284.394,114.302C-276.766,109.591 -268.775,105.952 -260.434,103.421C-248.632,68.772 -225.334,43.851 -192.318,28.507C-151.693,9.627 -110.088,9.428 -69.333,28.239C-35.869,43.686 -12.171,68.371 0,102.821" style="fill-rule:nonzero;"/>
                </g>
            </g>
            <g transform="matrix(1,0,0,1,568.251,548.356)">
                <path d="M0,-17.082C-10.554,-19.603 -16.367,-20.991 -16.367,-26.582C-16.367,-32.389 -10.219,-34.457 -4.464,-34.457C0.372,-34.457 4.418,-33.008 8.277,-29.89C10.368,-28.281 12.257,-27.532 14.221,-27.532C19.083,-27.532 22.612,-31.061 22.612,-35.924C22.612,-38.867 21.019,-41.475 17.737,-43.898C12.582,-47.69 4.463,-49.954 -3.981,-49.954C-19.545,-49.954 -35.248,-42.18 -35.248,-24.811C-35.248,-9.842 -23.49,-5.009 -11.986,-2.256C-0.493,0.423 5.505,2.105 5.505,8.212C5.505,16.474 -4.544,16.892 -6.559,16.892C-11.725,16.892 -16.471,15.136 -21.078,11.517C-23.579,9.64 -25.644,8.839 -27.982,8.839C-32.778,8.839 -36.535,12.668 -36.535,17.554C-36.535,19.684 -35.747,22.822 -31.991,25.684C-26.18,30.118 -16.743,32.872 -7.364,32.872C2.473,32.872 25.353,30.312 25.353,6.6C25.353,-9.007 11.804,-14.254 0,-17.082" style="fill-rule:nonzero;"/>
            </g>
            <g transform="matrix(1,0,0,1,602.302,571.469)">
                <path d="M0,-62.934C0,-68.104 4.101,-72.38 9.271,-72.38C14.441,-72.38 18.54,-68.104 18.54,-62.934L18.54,-27.639C18.54,-17.652 26.918,-9.275 36.906,-9.275C46.892,-9.275 55.27,-17.652 55.27,-27.639L55.27,-62.934C55.27,-68.104 59.369,-72.38 64.539,-72.38C69.532,-72.38 73.81,-68.104 73.81,-62.934L73.81,-27.639C73.81,-7.313 57.226,9.446 36.906,9.446C16.578,9.446 0,-7.319 0,-27.639L0,-62.934Z" style="fill-rule:nonzero;"/>
            </g>
            <g transform="matrix(1,0,0,1,726.597,590.369)">
                <path d="M0,-72.746C-12.478,-72.746 -22.459,-62.577 -22.465,-50.458C-22.465,-38.157 -12.478,-28.175 0,-28.175C11.943,-28.175 22.106,-38.157 22.106,-50.458C22.106,-62.583 11.943,-72.746 0,-72.746M0,-91.28C22.282,-91.28 40.469,-73.099 40.469,-50.458C40.469,-27.641 22.282,-9.454 0,-9.454C-8.918,-9.454 -16.761,-12.491 -22.465,-17.655L-22.465,9.257C-22.465,14.25 -26.566,18.534 -31.736,18.534C-36.723,18.534 -41.005,14.25 -41.005,9.257L-41.005,-50.458C-41.005,-73.099 -22.818,-91.28 0,-91.28" style="fill-rule:nonzero;"/>
            </g>
            <g transform="matrix(1,0,0,1,817.343,562.381)">
                <path d="M0,-44.758C-9.982,-44.758 -18.358,-37.979 -21.031,-28.891L20.678,-28.891C18.187,-37.985 9.804,-44.758 0,-44.758M0,-63.292C19.967,-63.292 36.728,-48.676 39.752,-29.425C41.715,-21.395 39.035,-15.691 29.055,-15.691L-21.037,-15.691C-18.358,-6.779 -9.982,-0.181 0,-0.181C5.879,-0.181 11.408,-2.684 15.508,-6.602C17.464,-8.558 19.961,-9.452 22.282,-9.452C24.602,-9.452 26.916,-8.565 28.703,-6.602C32.269,-3.212 32.269,2.844 28.703,6.592C21.395,13.9 11.055,18.534 0,18.534C-22.823,18.534 -41.005,0.347 -41.005,-22.47C-41.005,-45.111 -22.816,-63.292 0,-63.292" style="fill-rule:nonzero;"/>
            </g>
            <g transform="matrix(1,0,0,1,903.95,580.877)">
                <path d="M0,-82.179C4.993,-82.179 9.271,-77.903 9.271,-72.916C9.271,-67.74 4.987,-63.645 0,-63.645C-10.34,-63.645 -18.364,-55.438 -18.364,-45.281L-18.364,-9.452C-18.364,-4.101 -22.465,0 -27.635,0C-32.803,0 -36.904,-4.101 -36.904,-9.452L-36.904,-45.281C-36.904,-65.424 -20.326,-82.179 0,-82.179" style="fill-rule:nonzero;"/>
            </g>
            <g transform="matrix(1,0,0,1,931.769,580.922)">
                <path d="M0,-109.825C5.17,-109.825 9.263,-105.543 9.269,-100.549L9.269,-9.276C9.269,-4.282 5.17,0 0,0C-4.993,0 -9.271,-4.282 -9.271,-9.276L-9.271,-100.549C-9.271,-105.725 -4.993,-109.825 0,-109.825" style="fill-rule:nonzero;"/>
            </g>
            <g transform="matrix(1,0,0,1,1180.14,590.369)">
                <path d="M0,-72.746C-12.477,-72.746 -22.457,-62.577 -22.463,-50.458C-22.463,-38.157 -12.477,-28.175 0,-28.175C11.944,-28.175 22.107,-38.157 22.107,-50.458C22.107,-62.583 11.944,-72.746 0,-72.746M0,-91.28C22.282,-91.28 40.471,-73.099 40.471,-50.458C40.471,-27.641 22.282,-9.454 0,-9.454C-8.918,-9.454 -16.759,-12.491 -22.463,-17.655L-22.463,9.257C-22.463,14.25 -26.565,18.534 -31.734,18.534C-36.721,18.534 -41.004,14.25 -41.004,9.257L-41.004,-50.458C-41.004,-73.099 -22.817,-91.28 0,-91.28" style="fill-rule:nonzero;"/>
            </g>
            <g transform="matrix(-1,0,0,1,1235.96,580.92)">
                <path d="M-0.356,-21.388C-6.237,-21.388 -10.872,-16.754 -10.872,-10.873C-10.872,-4.993 -6.243,0 -0.356,0C5.529,0 10.516,-4.987 10.516,-10.873C10.516,-16.76 5.529,-21.388 -0.356,-21.388" style="fill-rule:nonzero;"/>
            </g>
            <g transform="matrix(1,0,0,1,1303.23,580.936)">
                <path d="M0,-109.831C5.17,-109.831 9.269,-105.731 9.269,-100.555C9.269,-95.386 5.17,-91.284 0,-91.284L-10.34,-91.284C-14.622,-91.284 -18.364,-87.719 -18.364,-83.266L-18.364,-81.845L0,-81.845C5.17,-81.845 9.269,-77.569 9.269,-72.575C9.269,-67.582 5.17,-63.304 0,-63.304L-18.364,-63.304L-18.364,-9.275C-18.364,-4.282 -22.282,0 -27.635,0C-32.628,0 -36.904,-4.282 -36.904,-9.275L-36.904,-63.292L-43.144,-63.292C-48.137,-63.292 -52.414,-67.57 -52.414,-72.563C-52.414,-77.556 -48.137,-81.832 -43.144,-81.832L-36.904,-81.832L-36.904,-83.266C-36.904,-97.888 -24.962,-109.831 -10.34,-109.831L0,-109.831Z" style="fill-rule:nonzero;"/>
            </g>
            <g transform="matrix(1,0,0,1,1345.26,580.923)">
                <path d="M0,-81.826C9.094,-81.826 17.47,-77.733 22.652,-71.311C28.533,-77.733 36.559,-81.826 45.828,-81.826C63.475,-81.826 77.916,-67.387 77.916,-49.387L77.916,-9.275C77.916,-4.282 73.815,0 68.821,0C63.469,0 59.193,-4.282 59.193,-9.275L59.193,-49.387C59.193,-57.053 53.131,-63.292 45.822,-63.292C38.332,-63.292 32.094,-57.053 32.094,-49.387L32.094,-9.275C32.094,-4.282 27.993,0 22.64,0C17.647,0 13.547,-4.282 13.547,-9.275L13.547,-49.387C13.547,-57.053 7.307,-63.292 0,-63.292C-7.667,-63.292 -13.73,-57.053 -13.73,-49.387L-13.73,-9.275C-13.73,-4.282 -17.83,0 -22.999,0C-27.986,0 -32.269,-4.282 -32.269,-9.275L-32.269,-49.387C-32.269,-67.387 -17.83,-81.826 0,-81.826" style="fill-rule:nonzero;"/>
            </g>
        </g>
    </g>
</svg>
